<svg viewBox="0 0 1543 2499.2" xmlns="http://www.w3.org/2000/svg"><path d="m0 1361.05c271.87 144.38 555.56 295.51 774.67 412.45l768.33-412.45c-278.2 413.29-510 757.36-768.33 1138.15-258.79-379.95-544.59-799.2-774.67-1138.15zm29.55-114 745.96-398.05 736.25 395.14-735.83 398.49zm745.12-525.58-774.67 407.81 771.29-1129.28 771.71 1131.81z" fill="#3ab83a"/><path d="m774.67 1773.5 768.33-412.45c-278.2 413.29-768.33 1138.15-768.33 1138.15zm.84-924.5 736.25 395.14-735.83 398.49zm-.84-127.5-3.38-721.5 771.71 1131.81z" fill="#0b8311"/><path d="m29.55 1247.06 746 61.22 736.25-63.75-735.87 398.52z" fill="#0b8311"/><path d="m775.51 1308.28 736.25-63.75-735.83 398.52z" fill="#146714"/></svg>