<svg viewBox="0 0 551.8 515" xmlns="http://www.w3.org/2000/svg"><g transform="matrix(1.60742 0 0 1.60742 -3.163 -281.382)"><ellipse cx="56.6" cy="428.8" fill="#de2813" rx="34.9" ry="34.9" transform="matrix(.99979998 -.02000014 .02000014 .99979998 -8.564393 1.218294)"/><circle cx="25.7" cy="358.2" fill="#e71619" r="23.7"/><circle cx="39.3" cy="281.7" fill="none" r="20.9"/><circle cx="83.2" cy="218.5" fill="#ec6816" r="18"/><circle cx="157" cy="188.8" fill="#f2961b" r="13.7"/><circle cx="233.8" cy="199.6" fill="#f1c621" r="11.4"/><circle cx="295.8" cy="248.9" fill="#f3c620" r="8.5"/><circle cx="325.4" cy="321.2" fill="#156192" r="19.8"/><circle cx="314.7" cy="397.5" fill="#2090c0" r="17.7"/><circle cx="267.6" cy="458.3" fill="#338dcc" r="13.8"/><circle cx="194" cy="486.3" fill="#38bae8" r="9.1"/><circle cx="120.7" cy="475.6" fill="#36bbe6" r="6.3"/><ellipse cx="39.5" cy="281.6" fill="#eb6617" rx="33.6" ry="33.6" transform="matrix(.99849981 -.05530037 .05530037 .99849981 -15.510872 2.61428)"/><g fill="#3f3f3f"><path d="m115.5 310.2 27.9-15.9-.1 92.5-27.8 15.7z"/><path d="m226.7 310.2 27.9-15.9-.1 92.5-27.8 15.7z"/><path d="m171 310.2 27.9-15.9-.1 92.5-27.8 15.7z"/></g><path d="m88.5 293.7 27.3-16.1 27.6 16.7-27.9 15.9z" fill="#686a69"/><path d="m143.9 293.7 27.3-16.1 27.6 16.7-27.8 15.9z" fill="#686a69"/><path d="m199.7 293.8 27.3-16.1 27.6 16.7-27.9 15.9z" fill="#686a69"/></g></svg>