<svg enable-background="new 0 0 520 520" viewBox="0 0 520 520" xmlns="http://www.w3.org/2000/svg"><circle cx="260" cy="260" fill="#fefefe" r="252.7"/><g fill="#9b1c2e"><path d="m155.6 370.7c5.9 0 11.2-3.2 14-8.4l37.3-70.6h-57.5c-8.7 0-15.8-7.1-15.8-15.8v-31.6c0-8.7 7.1-15.8 15.8-15.8h90.9l70.6-133.9c2.7-5.2 8.1-8.4 14-8.4h118.8c-46.2-48.8-111.4-79.2-183.7-79.2-139.7 0-253 113.3-253 253 0 39.7 9.2 77.3 25.5 110.7z"/><path d="m364.4 149.3c-5.9 0-11.2 3.2-14 8.4l-37.3 70.6h57.5c8.7 0 15.8 7.1 15.8 15.8v31.6c0 8.7-7.1 15.8-15.8 15.8h-90.9l-70.6 133.9c-2.7 5.2-8.1 8.4-14 8.4h-118.7c46.1 48.8 111.3 79.2 183.6 79.2 139.7 0 253-113.3 253-253 0-39.7-9.2-77.3-25.5-110.7z"/></g></svg>