<svg viewBox="0 0 113.37 113.37" xmlns="http://www.w3.org/2000/svg" xmlns:xlink="http://www.w3.org/1999/xlink"><radialGradient id="a" cx="102.77" cy="23.63" gradientUnits="userSpaceOnUse" r="95.37"><stop offset=".1" stop-color="#26db8d"/><stop offset=".26" stop-color="#23d29a"/><stop offset=".56" stop-color="#1abbbb"/><stop offset=".89" stop-color="#0e9de5"/></radialGradient><path d="m102.76 23.7-9.27 14.36a41.25 41.25 0 0 1 -55.41 55.44l-14.36 9.28a56.66 56.66 0 0 0 79-79.08z" fill="url(#a)"/><path d="m56.68 85.07a28.48 28.48 0 0 0 28-23.29 65.07 65.07 0 0 0 -51.61 10.72 28.43 28.43 0 0 0 23.61 12.57z" fill="url(#a)"/><path d="m70.72 55.15a68.59 68.59 0 0 1 14.43 1.54 28.47 28.47 0 0 0 -56.94 0 28.12 28.12 0 0 0 .27 3.81 62.1 62.1 0 0 0 -10.68 9.89 41.24 41.24 0 0 1 57.43-50.55l14.37-9.29a56.68 56.68 0 0 0 -78.53 79.78 68.15 68.15 0 0 1 9.7-13.33 81.58 81.58 0 0 1 9.87-8.77 67.78 67.78 0 0 1 40.08-13.08z" fill="#041742"/></svg>